<?xml version="1.0" encoding="UTF-8" standalone="no"?><!DOCTYPE svg PUBLIC "-//W3C//DTD SVG 1.1//EN" "http://www.w3.org/Graphics/SVG/1.1/DTD/svg11.dtd"><svg width="100%" height="100%" viewBox="0 0 490 100" version="1.1" xmlns="http://www.w3.org/2000/svg" xmlns:xlink="http://www.w3.org/1999/xlink" xml:space="preserve" xmlns:serif="http://www.serif.com/" style="fill-rule:evenodd;clip-rule:evenodd;stroke-linejoin:round;stroke-miterlimit:2;"><path d="M20.695,54.303l-18.695,-52.303l11.453,0l13.236,38.71l12.808,-38.71l11.203,0l-18.731,52.303l-11.274,0Z" style="fill:#484848;fill-rule:nonzero;"/><path d="M54.696,11.276l0,-9.276l10.025,0l0,9.276l-10.025,0Zm0,43.027l0,-37.889l10.025,0l0,37.889l-10.025,0Z" style="fill:#484848;fill-rule:nonzero;"/><path d="M106.672,54.303l-10.026,0l0,-19.337c0,-4.091 -0.214,-6.737 -0.642,-7.938c-0.428,-1.201 -1.124,-2.135 -2.087,-2.801c-0.963,-0.666 -2.123,-0.999 -3.478,-0.999c-1.737,0 -3.295,0.476 -4.674,1.427c-1.38,0.952 -2.325,2.212 -2.837,3.782c-0.511,1.57 -0.767,4.472 -0.767,8.705l0,17.161l-10.025,0l0,-37.889l9.312,0l0,5.565c3.306,-4.281 7.468,-6.422 12.487,-6.422c2.212,0 4.234,0.399 6.065,1.196c1.832,0.796 3.217,1.813 4.157,3.05c0.939,1.237 1.593,2.64 1.962,4.21c0.368,1.57 0.553,3.818 0.553,6.743l0,23.547Z" style="fill:#484848;fill-rule:nonzero;"/><path d="M147.088,27.617l-9.882,1.783c-0.333,-1.974 -1.089,-3.46 -2.266,-4.459c-1.177,-0.999 -2.705,-1.499 -4.585,-1.499c-2.497,0 -4.489,0.862 -5.976,2.587c-1.486,1.724 -2.229,4.608 -2.229,8.652c0,4.495 0.755,7.67 2.265,9.526c1.511,1.855 3.538,2.782 6.083,2.782c1.903,0 3.461,-0.541 4.674,-1.623c1.213,-1.082 2.069,-2.943 2.569,-5.583l9.847,1.676c-1.023,4.52 -2.985,7.933 -5.887,10.24c-2.902,2.307 -6.791,3.461 -11.667,3.461c-5.542,0 -9.96,-1.749 -13.254,-5.245c-3.294,-3.496 -4.941,-8.337 -4.941,-14.521c0,-6.255 1.653,-11.125 4.959,-14.61c3.306,-3.484 7.778,-5.227 13.415,-5.227c4.614,0 8.283,0.994 11.006,2.98c2.724,1.986 4.68,5.012 5.869,9.08Z" style="fill:#484848;fill-rule:nonzero;"/><path d="M176.629,42.244l9.99,1.677c-1.284,3.663 -3.312,6.452 -6.083,8.367c-2.771,1.914 -6.238,2.872 -10.4,2.872c-6.588,0 -11.464,-2.153 -14.628,-6.458c-2.497,-3.449 -3.746,-7.802 -3.746,-13.058c0,-6.279 1.641,-11.197 4.924,-14.753c3.282,-3.556 7.432,-5.334 12.451,-5.334c5.637,0 10.085,1.862 13.343,5.584c3.259,3.722 4.817,9.425 4.674,17.107l-25.117,0c0.072,2.974 0.88,5.287 2.426,6.94c1.546,1.653 3.473,2.479 5.78,2.479c1.57,0 2.89,-0.428 3.96,-1.284c1.071,-0.856 1.879,-2.236 2.426,-4.139Zm0.571,-10.132c-0.071,-2.902 -0.82,-5.108 -2.248,-6.618c-1.427,-1.511 -3.163,-2.266 -5.208,-2.266c-2.189,0 -3.996,0.797 -5.423,2.391c-1.428,1.593 -2.129,3.758 -2.105,6.493l14.984,0Z" style="fill:#484848;fill-rule:nonzero;"/><path d="M227,54.303l-10.026,0l0,-19.337c0,-4.091 -0.214,-6.737 -0.642,-7.938c-0.428,-1.201 -1.124,-2.135 -2.087,-2.801c-0.963,-0.666 -2.123,-0.999 -3.478,-0.999c-1.737,0 -3.295,0.476 -4.674,1.427c-1.38,0.952 -2.325,2.212 -2.837,3.782c-0.511,1.57 -0.767,4.472 -0.767,8.705l0,17.161l-10.025,0l0,-37.889l9.312,0l0,5.565c3.306,-4.281 7.468,-6.422 12.487,-6.422c2.212,0 4.234,0.399 6.065,1.196c1.832,0.796 3.217,1.813 4.157,3.05c0.939,1.237 1.593,2.64 1.962,4.21c0.369,1.57 0.553,3.818 0.553,6.743l0,23.547Z" style="fill:#484848;fill-rule:nonzero;"/><path d="M253.412,16.414l0,7.992l-6.851,0l0,15.27c0,3.092 0.066,4.893 0.197,5.405c0.13,0.511 0.428,0.933 0.892,1.266c0.463,0.333 1.028,0.5 1.694,0.5c0.928,0 2.272,-0.321 4.032,-0.964l0.856,7.778c-2.331,0.999 -4.971,1.499 -7.92,1.499c-1.808,0 -3.437,-0.304 -4.888,-0.91c-1.451,-0.607 -2.515,-1.392 -3.193,-2.355c-0.678,-0.963 -1.148,-2.265 -1.41,-3.907c-0.214,-1.165 -0.321,-3.52 -0.321,-7.064l0,-16.518l-4.602,0l0,-7.992l4.602,0l0,-7.528l10.061,-5.851l0,13.379l6.851,0Z" style="fill:#484848;fill-rule:nonzero;"/><path d="M262.506,54.303l0,-52.303l19.623,0c3.996,0 7.201,0.529 9.615,1.588c2.414,1.058 4.305,2.687 5.673,4.887c1.367,2.201 2.051,4.502 2.051,6.904c0,2.236 -0.606,4.341 -1.82,6.315c-1.213,1.974 -3.044,3.568 -5.494,4.781c3.164,0.927 5.596,2.509 7.296,4.745c1.701,2.236 2.551,4.876 2.551,7.92c0,2.45 -0.517,4.728 -1.552,6.833c-1.034,2.105 -2.313,3.728 -3.835,4.87c-1.522,1.141 -3.431,2.004 -5.726,2.586c-2.296,0.583 -5.108,0.874 -8.438,0.874l-19.944,0Zm6.921,-30.326l11.31,0c3.069,0 5.269,-0.202 6.601,-0.606c1.76,-0.523 3.086,-1.392 3.978,-2.605c0.892,-1.213 1.338,-2.735 1.338,-4.566c0,-1.737 -0.417,-3.265 -1.249,-4.585c-0.833,-1.32 -2.022,-2.224 -3.568,-2.711c-1.546,-0.488 -4.198,-0.732 -7.956,-0.732l-10.454,0l0,15.805Zm0,24.154l13.023,0c2.236,0 3.805,-0.083 4.709,-0.25c1.594,-0.285 2.926,-0.761 3.996,-1.427c1.07,-0.666 1.951,-1.635 2.64,-2.907c0.69,-1.273 1.035,-2.742 1.035,-4.407c0,-1.95 -0.5,-3.645 -1.499,-5.084c-0.998,-1.439 -2.384,-2.45 -4.156,-3.032c-1.772,-0.583 -4.323,-0.874 -7.653,-0.874l-12.095,0l0,17.981Z" style="fill:#484848;fill-rule:nonzero;"/><path d="M306.952,54.303l0,-37.889l5.78,0l0,5.744c1.475,-2.688 2.836,-4.46 4.085,-5.316c1.249,-0.856 2.622,-1.285 4.121,-1.285c2.164,0 4.364,0.69 6.6,2.07l-2.212,5.958c-1.57,-0.928 -3.14,-1.391 -4.709,-1.391c-1.404,0 -2.664,0.422 -3.782,1.266c-1.118,0.844 -1.915,2.016 -2.391,3.514c-0.713,2.284 -1.07,4.781 -1.07,7.493l0,19.836l-6.422,0Z" style="fill:#484848;fill-rule:nonzero;"/><path d="M356.778,42.102l6.636,0.82c-1.046,3.877 -2.985,6.886 -5.815,9.027c-2.831,2.14 -6.446,3.211 -10.846,3.211c-5.542,0 -9.936,-1.707 -13.183,-5.12c-3.247,-3.413 -4.87,-8.2 -4.87,-14.36c0,-6.375 1.641,-11.322 4.924,-14.842c3.282,-3.52 7.539,-5.281 12.772,-5.281c5.066,0 9.205,1.725 12.416,5.174c3.211,3.449 4.816,8.301 4.816,14.556c0,0.381 -0.012,0.952 -0.035,1.713l-28.257,0c0.238,4.162 1.415,7.349 3.532,9.561c2.117,2.212 4.757,3.318 7.921,3.318c2.354,0 4.364,-0.618 6.029,-1.855c1.665,-1.237 2.985,-3.211 3.96,-5.922Zm-21.085,-10.383l21.157,0c-0.286,-3.187 -1.094,-5.577 -2.426,-7.171c-2.046,-2.473 -4.698,-3.71 -7.957,-3.71c-2.949,0 -5.428,0.987 -7.438,2.961c-2.01,1.974 -3.122,4.614 -3.336,7.92Z" style="fill:#484848;fill-rule:nonzero;"/><path d="M369.6,54.303l0,-37.889l5.744,0l0,5.316c1.189,-1.856 2.771,-3.348 4.745,-4.478c1.974,-1.13 4.222,-1.695 6.743,-1.695c2.807,0 5.108,0.583 6.904,1.749c1.796,1.165 3.062,2.794 3.8,4.888c2.996,-4.425 6.897,-6.637 11.702,-6.637c3.758,0 6.648,1.041 8.669,3.122c2.022,2.081 3.033,5.287 3.033,9.615l0,26.009l-6.386,0l0,-23.868c0,-2.569 -0.208,-4.418 -0.625,-5.548c-0.416,-1.13 -1.171,-2.039 -2.265,-2.729c-1.094,-0.69 -2.379,-1.035 -3.853,-1.035c-2.664,0 -4.876,0.886 -6.636,2.658c-1.76,1.772 -2.64,4.609 -2.64,8.509l0,22.013l-6.422,0l0,-24.617c0,-2.854 -0.524,-4.995 -1.57,-6.422c-1.047,-1.427 -2.759,-2.141 -5.138,-2.141c-1.807,0 -3.478,0.476 -5.013,1.427c-1.534,0.952 -2.646,2.343 -3.335,4.175c-0.69,1.831 -1.035,4.471 -1.035,7.92l0,19.658l-6.422,0Z" style="fill:#484848;fill-rule:nonzero;"/><path d="M454.422,42.102l6.636,0.82c-1.046,3.877 -2.985,6.886 -5.815,9.027c-2.831,2.14 -6.446,3.211 -10.846,3.211c-5.542,0 -9.936,-1.707 -13.183,-5.12c-3.247,-3.413 -4.87,-8.2 -4.87,-14.36c0,-6.375 1.641,-11.322 4.923,-14.842c3.283,-3.52 7.54,-5.281 12.773,-5.281c5.066,0 9.205,1.725 12.416,5.174c3.211,3.449 4.816,8.301 4.816,14.556c0,0.381 -0.012,0.952 -0.035,1.713l-28.257,0c0.238,4.162 1.415,7.349 3.532,9.561c2.117,2.212 4.757,3.318 7.92,3.318c2.355,0 4.365,-0.618 6.03,-1.855c1.665,-1.237 2.985,-3.211 3.96,-5.922Zm-21.085,-10.383l21.156,0c-0.285,-3.187 -1.094,-5.577 -2.426,-7.171c-2.045,-2.473 -4.697,-3.71 -7.956,-3.71c-2.949,0 -5.429,0.987 -7.438,2.961c-2.01,1.974 -3.122,4.614 -3.336,7.92Z" style="fill:#484848;fill-rule:nonzero;"/><path d="M467.444,54.303l0,-37.889l5.78,0l0,5.744c1.475,-2.688 2.836,-4.46 4.085,-5.316c1.249,-0.856 2.622,-1.285 4.121,-1.285c2.164,0 4.364,0.69 6.6,2.07l-2.212,5.958c-1.57,-0.928 -3.14,-1.391 -4.709,-1.391c-1.404,0 -2.664,0.422 -3.782,1.266c-1.118,0.844 -1.915,2.016 -2.391,3.514c-0.713,2.284 -1.07,4.781 -1.07,7.493l0,19.836l-6.422,0Z" style="fill:#484848;fill-rule:nonzero;"/><g><path d="M77.546,96.317l-5.907,-24.741l5.113,0l3.73,16.995l4.523,-16.995l5.941,0l4.337,17.282l3.797,-17.282l5.029,0l-6.008,24.741l-5.299,0l-4.928,-18.497l-4.911,18.497l-5.417,0Z" style="fill:#484848;fill-rule:nonzero;"/><path d="M106.658,96.317l0,-24.741l18.345,0l0,4.185l-13.35,0l0,5.485l12.421,0l0,4.169l-12.421,0l0,6.734l13.822,0l0,4.168l-18.817,0Z" style="fill:#484848;fill-rule:nonzero;"/><path d="M128.883,71.576l9.89,0c1.958,0 3.417,0.082 4.379,0.245c0.962,0.163 1.823,0.503 2.582,1.021c0.76,0.517 1.393,1.207 1.899,2.067c0.506,0.861 0.76,1.826 0.76,2.895c0,1.158 -0.313,2.222 -0.937,3.189c-0.625,0.968 -1.471,1.694 -2.54,2.177c1.508,0.439 2.666,1.187 3.477,2.245c0.81,1.057 1.215,2.301 1.215,3.73c0,1.125 -0.262,2.219 -0.785,3.282c-0.523,1.063 -1.238,1.913 -2.143,2.548c-0.906,0.636 -2.023,1.027 -3.35,1.173c-0.833,0.09 -2.841,0.147 -6.025,0.169l-8.422,0l0,-24.741Zm4.996,4.118l0,5.721l3.274,0c1.946,0 3.156,-0.028 3.628,-0.084c0.855,-0.102 1.527,-0.397 2.017,-0.886c0.489,-0.49 0.734,-1.134 0.734,-1.933c0,-0.765 -0.211,-1.386 -0.633,-1.864c-0.422,-0.479 -1.049,-0.768 -1.882,-0.87c-0.495,-0.056 -1.918,-0.084 -4.269,-0.084l-2.869,0Zm0,9.839l0,6.616l4.624,0c1.8,0 2.942,-0.051 3.426,-0.152c0.742,-0.135 1.347,-0.464 1.814,-0.988c0.467,-0.523 0.7,-1.223 0.7,-2.101c0,-0.742 -0.18,-1.372 -0.54,-1.89c-0.36,-0.517 -0.88,-0.894 -1.561,-1.131c-0.68,-0.236 -2.157,-0.354 -4.43,-0.354l-4.033,0Z" style="fill:#484848;fill-rule:nonzero;"/><path d="M153.255,96.317l0,-24.741l8.522,0c1.924,0 3.392,0.118 4.405,0.355c1.418,0.326 2.627,0.916 3.628,1.772c1.306,1.102 2.282,2.511 2.929,4.227c0.646,1.716 0.97,3.676 0.97,5.882c0,1.879 -0.219,3.544 -0.658,4.995c-0.439,1.451 -1.002,2.653 -1.688,3.603c-0.686,0.951 -1.437,1.699 -2.253,2.245c-0.816,0.545 -1.8,0.959 -2.953,1.24c-1.154,0.282 -2.478,0.422 -3.975,0.422l-8.927,0Zm3.274,-2.919l5.282,0c1.631,0 2.911,-0.152 3.839,-0.456c0.929,-0.304 1.668,-0.731 2.22,-1.283c0.776,-0.776 1.381,-1.82 1.814,-3.13c0.433,-1.311 0.65,-2.9 0.65,-4.768c0,-2.588 -0.425,-4.576 -1.275,-5.966c-0.849,-1.389 -1.881,-2.32 -3.096,-2.793c-0.878,-0.337 -2.29,-0.506 -4.236,-0.506l-5.198,0l0,18.902Z" style="fill:#484848;fill-rule:nonzero;"/><path d="M177.377,96.317l0,-24.741l17.89,0l0,2.92l-14.616,0l0,7.577l13.687,0l0,2.903l-13.687,0l0,8.422l15.189,0l0,2.919l-18.463,0Z" style="fill:#484848;fill-rule:nonzero;"/><path d="M208.306,96.317l-9.586,-24.741l3.544,0l6.43,17.974c0.517,1.44 0.951,2.79 1.299,4.05c0.383,-1.35 0.827,-2.7 1.334,-4.05l6.683,-17.974l3.341,0l-9.687,24.741l-3.358,0Z" style="fill:#484848;fill-rule:nonzero;"/><path d="M224.544,96.317l0,-24.741l17.889,0l0,2.92l-14.615,0l0,7.577l13.687,0l0,2.903l-13.687,0l0,8.422l15.189,0l0,2.919l-18.463,0Z" style="fill:#484848;fill-rule:nonzero;"/><path d="M246.452,96.317l0,-24.741l3.274,0l0,21.822l12.185,0l0,2.919l-15.459,0Z" style="fill:#484848;fill-rule:nonzero;"/><path d="M264.531,84.276c0,-4.107 1.102,-7.322 3.308,-9.645c2.205,-2.324 5.051,-3.485 8.539,-3.485c2.284,0 4.343,0.545 6.177,1.637c1.834,1.091 3.232,2.613 4.194,4.565c0.962,1.952 1.443,4.166 1.443,6.641c0,2.509 -0.506,4.753 -1.519,6.734c-1.013,1.98 -2.447,3.479 -4.304,4.497c-1.856,1.018 -3.859,1.528 -6.008,1.528c-2.329,0 -4.41,-0.563 -6.244,-1.688c-1.834,-1.125 -3.223,-2.661 -4.169,-4.607c-0.945,-1.947 -1.417,-4.006 -1.417,-6.177Zm3.375,0.05c0,2.982 0.802,5.331 2.405,7.046c1.603,1.716 3.614,2.574 6.033,2.574c2.464,0 4.492,-0.866 6.084,-2.599c1.592,-1.733 2.389,-4.191 2.389,-7.375c0,-2.014 -0.341,-3.772 -1.022,-5.274c-0.68,-1.502 -1.676,-2.666 -2.987,-3.493c-1.31,-0.827 -2.782,-1.241 -4.413,-1.241c-2.318,0 -4.312,0.796 -5.983,2.388c-1.67,1.592 -2.506,4.25 -2.506,7.974Z" style="fill:#484848;fill-rule:nonzero;"/><path d="M291.657,96.317l0,-24.741l9.332,0c1.643,0 2.898,0.079 3.764,0.236c1.215,0.203 2.233,0.588 3.055,1.156c0.821,0.569 1.482,1.365 1.983,2.388c0.5,1.024 0.751,2.149 0.751,3.376c0,2.104 -0.67,3.884 -2.009,5.341c-1.339,1.457 -3.758,2.186 -7.257,2.186l-6.345,0l0,10.058l-3.274,0Zm3.274,-12.978l6.396,0c2.115,0 3.617,-0.394 4.506,-1.181c0.889,-0.788 1.333,-1.896 1.333,-3.325c0,-1.035 -0.261,-1.921 -0.785,-2.658c-0.523,-0.737 -1.212,-1.224 -2.067,-1.46c-0.551,-0.146 -1.569,-0.219 -3.055,-0.219l-6.328,0l0,8.843Z" style="fill:#484848;fill-rule:nonzero;"/><path d="M314.515,96.317l0,-24.741l4.928,0l5.856,17.518c0.54,1.631 0.934,2.852 1.181,3.662c0.281,-0.9 0.72,-2.222 1.316,-3.966l5.924,-17.214l4.405,0l0,24.741l-3.156,0l0,-20.707l-7.189,20.707l-2.954,0l-7.156,-21.062l0,21.062l-3.155,0Z" style="fill:#484848;fill-rule:nonzero;"/><path d="M342.343,96.317l0,-24.741l17.89,0l0,2.92l-14.616,0l0,7.577l13.687,0l0,2.903l-13.687,0l0,8.422l15.189,0l0,2.919l-18.463,0Z" style="fill:#484848;fill-rule:nonzero;"/><path d="M365.013,96.317l0,-24.741l3.358,0l12.995,19.425l0,-19.425l3.139,0l0,24.741l-3.358,0l-12.995,-19.442l0,19.442l-3.139,0Z" style="fill:#484848;fill-rule:nonzero;"/><path d="M396.019,96.317l0,-21.821l-8.151,0l0,-2.92l19.61,0l0,2.92l-8.185,0l0,21.821l-3.274,0Z" style="fill:#484848;fill-rule:nonzero;"/></g><path d="M57.468,94.273l-18.633,-8.102l0,-4.486l18.633,-8.065l0,5.284l-12.996,4.968l12.996,5.155l0,5.246Z" style="fill:#ff4938;fill-rule:nonzero;"/><g><path d="M421.649,98l6.73,-28.107l3.912,0l-6.805,28.107l-3.837,0Z" style="fill:#ff4938;fill-rule:nonzero;"/><path d="M434.015,94.459l0,-5.247l13.015,-5.117l-13.015,-5.061l0,-5.21l18.651,8.065l0,4.449l-18.651,8.121Z" style="fill:#ff4938;fill-rule:nonzero;"/></g></svg>